<?xml version="1.0" encoding="utf-8"?>
<!-- Generator: Adobe Illustrator 28.3.0, SVG Export Plug-In . SVG Version: 6.00 Build 0)  -->
<svg version="1.1" id="Cat" xmlns="http://www.w3.org/2000/svg" xmlns:xlink="http://www.w3.org/1999/xlink" x="0px" y="0px"
	 viewBox="0 0 165 175" style="enable-background:new 0 0 165 175;" xml:space="preserve">
<style type="text/css">
	.st0{fill:#FFFFFF;}
</style>
<g>
	<g>
		<path d="M113.6,89.6c-0.7,2-1.4,4-2,5.9c-3.4,10-6.9,20.1-10.3,30.1c-0.1,0.4-0.2,0.9-0.1,1.3c0.4,4.6,0.5,9.3,0.1,14
			c-0.3,4.1-0.9,8.1-2,12c-0.5,1.8-1.2,3.6-1.9,5.4c-0.7,1.8-1.7,3.3-2.9,4.8c-1.6,2-3.5,3.8-5.3,5.6c-1,1-2,2-3,3
			c-0.6,0.6-1.4,1-2.3,0.9c-0.4,0-0.8-0.2-1.2-0.3c-0.3,0.1-0.6,0.3-1,0.3c-0.9,0.1-1.6-0.1-2.2-0.7c-0.4-0.4-0.8-0.8-1.2-1.2
			c-1.7-1.7-3.3-3.3-5-5c-0.3-0.3-0.7-0.7-1-1.1c-2.5-2.6-4.2-5.7-5.3-9.1c-1.2-3.7-2.1-7.6-2.5-11.5c-0.6-5.2-0.6-10.3-0.3-15.5
			c0-0.6,0.1-1.2,0.1-1.8c0-0.3-0.1-0.7-0.2-1c-2.1-6.3-4.3-12.6-6.5-18.8c-1.9-5.5-3.8-11-5.6-16.5c-0.1-0.2-0.1-0.4-0.2-0.7
			c-0.3,0-0.5-0.1-0.8-0.1c-3.2-0.2-6.5-0.3-9.7-0.1c-2.9,0.2-5.9,0.4-8.8,0.7c-3.9,0.4-7.7,1.1-11.6,1.9c-2.2,0.5-4.5,1-6.7,1.4
			c-2.2,0.4-4.3,0.4-6.4-0.4c-3.1-1.2-4.8-3.5-5.3-6.7c-0.4-2.4,0.1-4.7,0.8-6.9c0.7-1.9,1.6-3.7,2.7-5.5c2.4-3.8,5.3-7,8.8-9.8
			c3.1-2.5,6.6-4.2,10.5-5c4.2-0.8,8.3-1.7,12.6-2.3c0.8-0.1,1.6-0.2,2.5-0.4c-0.1-0.3-0.1-0.5-0.2-0.7c-0.3-0.8-0.5-1.6-0.8-2.4
			c-1-2.5-1-5-0.4-7.5c0.8-3.5,2.3-6.7,4.2-9.7c1.4-2.2,3.1-4.3,5-6.2c2.3-2.3,4.6-4.6,6.9-6.9c1.7-1.7,3.5-3.2,5.6-4.2
			c1.3-0.7,2.7-1.2,4.2-1.2c1.4-0.1,2.7,0.2,3.9,1.1c0.1,0.1,0.2,0.1,0.3,0.2c0.1-0.2,0.2-0.3,0.2-0.5c2.1-4.5,4.8-8.6,8.4-12.1
			c1.5-1.5,2.9-2.9,4.4-4.4c0.2-0.2,0.3-0.4,0.5-0.6c0.2,0.2,0.3,0.2,0.4,0.4c1.8,1.8,3.6,3.6,5.4,5.4c3.2,3.2,5.6,7,7.5,11.1
			c0.1,0.2,0.2,0.4,0.3,0.6c0.8-0.3,1.5-0.8,2.2-1c1.4-0.4,2.8-0.2,4.2,0.2c1.3,0.4,2.4,1,3.6,1.7c1.5,1,2.8,2.1,4.1,3.3
			c2.4,2.4,4.9,4.8,7.3,7.3c3.7,3.8,6.6,8.1,8.3,13.2c0.7,2,1.1,4,1,6c0,1.1-0.2,2.1-0.6,3.2c-0.4,1-0.7,2-1,3.1
			c-0.1,0.2-0.1,0.4-0.2,0.6c0.7,0.1,1.4,0.2,2.1,0.3c5,0.7,10,1.7,15,2.9c2,0.5,3.9,1.3,5.6,2.4c5.8,3.7,10.3,8.6,13.4,14.8
			c1.1,2.1,1.8,4.4,2,6.8c0.1,1.5,0,3-0.5,4.4c-1.1,3.1-3.4,4.9-6.7,5.5c-1.9,0.4-3.8,0.1-5.7-0.3c-5-1.2-10-2.1-15.1-2.8
			c-5.9-0.8-11.8-1.3-17.7-1.1C116.1,89.5,114.8,89.6,113.6,89.6L113.6,89.6z M74.8,160c0,0,0.1,0,0.1-0.1c0-0.2,0-0.3-0.1-0.5
			c-1.1-4.8-1.5-9.6-1.5-14.5c0-7,0.7-13.9,1.9-20.7c1.2-7.2,2.9-14.3,4.9-21.3c0.1-0.5,0.3-0.9,0.6-1.3c2.1-3.2,4.6-6,7.6-8.3
			c4.6-3.5,9.7-5.7,15.3-7.1c5.3-1.3,10.7-1.8,16.2-1.8c6,0,11.9,0.6,17.9,1.5c4.6,0.7,9.3,1.6,13.8,2.7c1.1,0.3,2.3,0.4,3.4,0.2
			c1.7-0.3,2.7-1.3,3-2.9c0-0.3,0.1-0.5,0.1-0.8c0.1-1.8-0.4-3.5-1.2-5.1c-2.7-5.9-7-10.6-12.6-13.9c-1.1-0.6-2.2-1.1-3.4-1.4
			c-5.5-1.3-11.1-2.4-16.7-3.1c-5.1-0.7-10.2-1-15.3-0.9c-4.2,0.1-8.3,0.5-12.3,1.4c-4,0.9-7.8,2.2-11.3,4.3
			c-0.3,0.2-0.6,0.4-0.7,0.8c-3.4,9-6.4,18.1-9,27.3c-2.7,9.5-4.8,19.2-6,29.1c-0.5,4.3-0.7,8.6-0.7,12.9c0.1,3.8,0.4,7.5,1.1,11.2
			c0.6,3.1,1.5,6.2,2.8,9.1C73.2,157.9,74,158.9,74.8,160L74.8,160z M79.5,66c-0.3-0.2-0.5-0.3-0.7-0.4c-2.7-1.4-5.5-2.5-8.5-3.2
			c-5-1.3-10-1.7-15.1-1.8c-5.3,0-10.5,0.4-15.8,1.2c-4.5,0.6-9,1.6-13.5,2.5c-3.1,0.6-5.7,2-8.2,3.9c-3,2.4-5.6,5.2-7.6,8.4
			c-1.1,1.6-1.9,3.4-2.5,5.2c-0.4,1.3-0.6,2.5-0.5,3.8c0.2,1.6,1,2.7,2.6,3.1c1.1,0.3,2.2,0.3,3.3,0c4.6-1,9.3-2,14-2.7
			c5-0.8,10.1-1.3,15.1-1.5c5.2-0.2,10.3,0.1,15.4,1c4.6,0.8,9.1,2.1,13.2,4.2c0.1,0.1,0.3,0.1,0.5,0.2C73.9,81.8,76.6,73.9,79.5,66
			L79.5,66z M82.6,8.6c-0.7,0.7-1.4,1.4-2.1,2.1c-3.7,3.9-6.4,8.3-8,13.4c-0.5,1.6-0.8,3.3-0.7,5c0.2,2.9,0.5,5.9,0.8,8.8
			c0.3,3.1,0.6,6.1,0.9,9.2c0.3,3.1,0.6,6.2,0.8,9.2c0.1,0.7,0.1,1.4,0.2,2.1c2.8,0.9,5.5,2.1,8.1,3.6c2.6-1.5,5.3-2.7,8.1-3.6
			c0-0.1,0-0.3,0-0.4c0.2-1.6,0.3-3.3,0.5-4.9c0.3-3.6,0.6-7.1,1-10.7c0.4-4.4,0.8-8.9,1.3-13.3c0-0.5,0-0.9,0-1.4
			c-0.1-1.2-0.3-2.4-0.7-3.6c-1.2-4.1-3.3-7.7-5.9-11.1C85.5,11.5,84.1,10.1,82.6,8.6L82.6,8.6z M95.8,57c8-1.6,16-1.7,24-1
			c0.1-0.3,0.2-0.4,0.3-0.7c0.5-1.3,0.9-2.7,1.4-4c0.3-0.8,0.4-1.7,0.3-2.6c-0.1-1.3-0.4-2.5-0.8-3.7c-1.5-4.2-3.9-7.8-7-11
			c-2.4-2.4-4.8-4.8-7.2-7.2c-0.4-0.4-0.9-0.8-1.3-1.2c-1.1-1-2.3-1.8-3.6-2.4c-0.5-0.2-1-0.4-1.6-0.5c-0.7-0.1-1,0.1-1.1,0.7
			c-0.2,0.5-0.2,1.1-0.3,1.7c-0.2,1.6-0.3,3.3-0.5,4.9c-0.2,2.6-0.5,5.2-0.7,7.8c-0.2,2.6-0.5,5.2-0.7,7.8c-0.3,3.1-0.6,6.2-0.9,9.3
			C95.9,55.7,95.9,56.3,95.8,57L95.8,57z M69.3,57c0-0.3,0-0.5,0-0.7c-0.2-1.6-0.3-3.2-0.5-4.9c-0.4-4-0.7-8.1-1.1-12.1
			c-0.4-4.7-0.9-9.4-1.3-14.2c-0.1-0.5-0.1-1.1-0.3-1.6c-0.2-0.7-0.5-0.8-1.2-0.8c-0.1,0-0.3,0-0.4,0.1c-0.9,0.2-1.7,0.6-2.4,1.1
			c-1.3,0.8-2.5,1.8-3.6,2.9c-2.3,2.3-4.7,4.7-7,7c-2.1,2.1-3.8,4.4-5.2,6.9c-1.1,2-2,4-2.5,6.2c-0.4,1.7-0.4,3.4,0.3,5.1
			c0.4,1.1,0.8,2.2,1.1,3.3c0.1,0.2,0.2,0.4,0.3,0.7C53.4,55.4,61.3,55.4,69.3,57L69.3,57z M90.7,97.8c-0.2,0.2-0.3,0.2-0.5,0.3
			c-1.7,1.5-3.3,3.2-4.6,5c-0.3,0.4-0.3,0.7-0.2,1.2c2.4,8.9,4.4,18,5.5,27.2c0.6,5,0.9,9.9,0.8,14.9c-0.1,4.4-0.5,8.7-1.5,13
			c0,0.1,0,0.3-0.1,0.6c0.2-0.3,0.4-0.4,0.5-0.6c1.2-1.4,1.9-3.1,2.6-4.8c2-5.3,2.8-10.9,3-16.5c0.1-2.8,0-5.6-0.1-8.4
			c-0.1-3.7-0.6-7.3-1.1-11c-0.7-4.8-1.6-9.5-2.7-14.2C91.9,102.3,91.3,100.1,90.7,97.8L90.7,97.8z M99.5,114.8
			c0.4-0.7,8.3-23.9,8.4-24.4c-4.5,0.8-8.8,2.2-12.8,4.4C96.9,101.5,98.4,108.1,99.5,114.8z M70.1,94.9c-2.4-1.7-10.9-4.6-12.9-4.4
			c0.5,1.8,8.1,23.9,8.4,24.3C66.8,108,68.3,101.4,70.1,94.9L70.1,94.9z M82.5,144.6C82.5,144.6,82.6,144.6,82.5,144.6
			c0.1-0.1,0.2-0.3,0.2-0.4c0.2-2.6,0.5-5.2,0.7-7.8c0.4-4.3,0.8-8.6,1.2-12.8c0-0.4,0-0.8-0.1-1.2c-0.5-2.7-1.1-5.3-1.7-8
			c-0.1-0.3-0.1-0.5-0.2-0.9c-0.1,0.2-0.1,0.2-0.1,0.3c-0.6,3.1-1.3,6.1-1.9,9.2c0,0.2,0,0.4,0,0.5c0.3,3,0.6,6.1,0.9,9.1
			c0.3,3.6,0.7,7.1,1,10.7C82.4,143.6,82.5,144.1,82.5,144.6L82.5,144.6z"/>
		<path class="st0" d="M74.8,160c-0.8-1-1.6-2.1-2.1-3.3c-1.3-2.9-2.2-6-2.8-9.1c-0.7-3.7-1-7.5-1.1-11.2c-0.1-4.3,0.2-8.6,0.7-12.9
			c1.1-9.9,3.3-19.5,6-29.1c2.6-9.2,5.7-18.3,9-27.3c0.1-0.4,0.3-0.6,0.7-0.8c3.5-2.1,7.4-3.4,11.3-4.3c4.1-0.9,8.2-1.3,12.3-1.4
			c5.1-0.1,10.2,0.3,15.3,0.9c5.6,0.7,11.2,1.8,16.7,3.1c1.2,0.3,2.4,0.8,3.4,1.4c5.6,3.4,9.8,8,12.6,13.9c0.7,1.6,1.2,3.3,1.2,5.1
			c0,0.3,0,0.5-0.1,0.8c-0.3,1.6-1.3,2.6-3,2.9c-1.2,0.2-2.3,0.1-3.4-0.2c-4.6-1.1-9.2-2-13.8-2.7c-5.9-0.9-11.9-1.5-17.9-1.5
			c-5.5,0-10.9,0.5-16.2,1.8c-5.6,1.4-10.7,3.6-15.3,7.1c-3,2.3-5.6,5.1-7.6,8.3c-0.3,0.4-0.5,0.9-0.6,1.3c-2,7-3.7,14.1-4.9,21.3
			c-1.2,6.9-1.9,13.8-1.9,20.7c0,4.9,0.4,9.7,1.5,14.5c0,0.1,0,0.3,0.1,0.5C74.9,159.9,74.8,160,74.8,160L74.8,160z"/>
		<path class="st0" d="M79.5,66c-2.9,7.9-5.6,15.8-8,23.9c-0.2-0.1-0.3-0.1-0.5-0.2c-4.2-2.1-8.6-3.5-13.2-4.2
			c-5.1-0.9-10.3-1.1-15.4-1c-5.1,0.2-10.1,0.7-15.1,1.5c-4.7,0.7-9.4,1.7-14,2.7c-1.1,0.2-2.2,0.3-3.3,0c-1.6-0.4-2.5-1.5-2.6-3.1
			c-0.1-1.3,0.1-2.6,0.5-3.8c0.6-1.9,1.5-3.6,2.5-5.2c2.1-3.2,4.6-6,7.6-8.4c2.4-1.9,5.1-3.2,8.2-3.9c4.5-0.9,8.9-1.8,13.5-2.5
			c5.2-0.7,10.5-1.2,15.8-1.2c5.1,0,10.2,0.5,15.1,1.8c2.9,0.8,5.8,1.8,8.5,3.2C79,65.7,79.3,65.8,79.5,66L79.5,66z"/>
		<path class="st0" d="M82.6,8.6c1.5,1.5,3,2.9,4.2,4.5c2.6,3.3,4.7,7,5.9,11.1c0.4,1.2,0.6,2.4,0.7,3.6c0,0.5,0,0.9,0,1.4
			c-0.4,4.4-0.8,8.9-1.3,13.3c-0.3,3.6-0.6,7.1-1,10.7c-0.2,1.6-0.3,3.3-0.5,4.9c0,0.1,0,0.2,0,0.4c-2.8,0.9-5.5,2.1-8.1,3.6
			c-2.6-1.5-5.3-2.7-8.1-3.6c-0.1-0.7-0.1-1.4-0.2-2.1c-0.3-3.1-0.6-6.2-0.8-9.2c-0.3-3.1-0.6-6.1-0.9-9.2c-0.3-2.9-0.6-5.9-0.8-8.8
			c-0.1-1.7,0.2-3.3,0.7-5c1.6-5.1,4.3-9.5,8-13.4C81.1,10.1,81.8,9.4,82.6,8.6L82.6,8.6z"/>
		<path class="st0" d="M95.8,57c0.1-0.7,0.1-1.4,0.2-2c0.3-3.1,0.6-6.2,0.9-9.3c0.2-2.6,0.5-5.2,0.7-7.8c0.2-2.6,0.5-5.2,0.7-7.8
			c0.2-1.6,0.3-3.3,0.5-4.9c0.1-0.6,0.1-1.1,0.3-1.7c0.2-0.6,0.5-0.8,1.1-0.7c0.5,0.1,1.1,0.3,1.6,0.5c1.4,0.6,2.5,1.5,3.6,2.4
			c0.4,0.4,0.9,0.8,1.3,1.2c2.4,2.4,4.8,4.8,7.2,7.2c3.1,3.2,5.5,6.8,7,11c0.4,1.2,0.7,2.4,0.8,3.7c0.1,0.9,0,1.8-0.3,2.6
			c-0.5,1.3-0.9,2.7-1.4,4c-0.1,0.2-0.2,0.4-0.3,0.7C111.8,55.4,103.8,55.4,95.8,57L95.8,57z"/>
		<path class="st0" d="M69.3,57c-8-1.6-15.9-1.7-23.9-0.9c-0.1-0.2-0.2-0.5-0.3-0.7c-0.4-1.1-0.7-2.2-1.1-3.3
			c-0.7-1.7-0.7-3.4-0.3-5.1c0.5-2.2,1.4-4.3,2.5-6.2c1.4-2.5,3.2-4.8,5.2-6.9c2.3-2.3,4.7-4.7,7-7c1.1-1.1,2.3-2.1,3.6-2.9
			c0.8-0.5,1.5-0.9,2.4-1.1c0.1,0,0.3-0.1,0.4-0.1c0.7-0.1,1,0.1,1.2,0.8c0.2,0.5,0.2,1.1,0.3,1.6c0.4,4.7,0.9,9.4,1.3,14.2
			c0.4,4,0.7,8.1,1.1,12.1c0.1,1.6,0.3,3.2,0.5,4.9C69.3,56.5,69.3,56.7,69.3,57L69.3,57z"/>
		<path class="st0" d="M90.7,97.8c0.6,2.3,1.1,4.5,1.6,6.7c1.1,4.7,2,9.4,2.7,14.2c0.5,3.6,1,7.3,1.1,11c0.1,2.8,0.2,5.6,0.1,8.4
			c-0.2,5.6-1,11.2-3,16.5c-0.6,1.7-1.4,3.4-2.6,4.8c-0.1,0.2-0.3,0.3-0.5,0.6c0-0.3,0-0.5,0.1-0.6c0.9-4.3,1.4-8.6,1.5-13
			c0.1-5-0.2-10-0.8-14.9c-1.1-9.2-3.1-18.2-5.5-27.2c-0.1-0.5-0.1-0.8,0.2-1.2c1.4-1.8,2.9-3.5,4.6-5C90.4,98.1,90.5,98,90.7,97.8
			L90.7,97.8z"/>
		<path class="st0" d="M99.5,114.8c-1.2-6.8-2.7-13.4-4.5-20c4-2.3,8.3-3.6,12.8-4.4C107.9,90.9,100,114.1,99.5,114.8z"/>
		<path class="st0" d="M70.1,94.9c-1.8,6.5-3.3,13.1-4.4,19.9c-0.3-0.4-8-22.4-8.4-24.3C59.1,90.3,67.7,93.2,70.1,94.9z"/>
		<path class="st0" d="M82.5,144.6c-0.1-0.5-0.1-1-0.2-1.5c-0.3-3.6-0.6-7.1-1-10.7c-0.3-3-0.6-6.1-0.9-9.1c0-0.2,0-0.4,0-0.5
			c0.6-3.1,1.3-6.1,1.9-9.2c0-0.1,0.1-0.1,0.1-0.3c0.1,0.4,0.2,0.6,0.2,0.9c0.6,2.7,1.1,5.3,1.7,8c0.1,0.4,0.1,0.8,0.1,1.2
			c-0.4,4.3-0.8,8.6-1.2,12.8c-0.2,2.6-0.5,5.2-0.7,7.8c0,0.1-0.1,0.3-0.1,0.4C82.6,144.6,82.6,144.6,82.5,144.6L82.5,144.6z"/>
	</g>
	<path class="st0" d="M80.6,122.1c0,0-5.6,29.2,1.2,40.4l0.9,1.8l1-1.9c0,0,6-9.6,0.5-41.5L80.6,122.1L80.6,122.1z"/>
</g>
</svg>
